<?xml version="1.0" standalone="no"?>
<!DOCTYPE svg PUBLIC "-//W3C//DTD SVG 20010904//EN"
 "http://www.w3.org/TR/2001/REC-SVG-20010904/DTD/svg10.dtd">
<svg version="1.0" xmlns="http://www.w3.org/2000/svg"
 width="700.000000pt" height="700.000000pt" viewBox="0 0 700.000000 700.000000"
 preserveAspectRatio="xMidYMid meet">
<metadata>
Created by potrace 1.11, written by Peter Selinger 2001-2013
</metadata>
<g transform="translate(0.000000,700.000000) scale(0.100000,-0.100000)"
fill="#000000" stroke="none">
<path d="M1233 3813 c5 -2517 8 -2897 20 -2909 5 -6 126 76 397 269 l59 42 1
1705 c1 2021 4 2288 28 2312 5 5 21 -17 37 -49 37 -75 202 -417 248 -513 19
-41 61 -129 92 -195 32 -66 70 -147 85 -180 15 -33 53 -114 85 -180 31 -66 74
-156 95 -200 59 -127 119 -253 165 -350 54 -114 119 -253 155 -330 15 -33 51
-109 80 -170 29 -60 63 -135 77 -165 14 -30 43 -93 65 -140 22 -47 55 -116 73
-155 18 -38 60 -128 94 -199 34 -70 61 -130 61 -132 0 -1 21 -47 46 -101 100
-213 124 -266 119 -271 -2 -3 -9 6 -14 19 -5 13 -64 137 -131 274 -117 240
-163 335 -290 600 -32 66 -97 201 -145 300 -48 99 -112 232 -142 295 -31 63
-80 167 -110 230 -31 63 -75 156 -98 205 -23 50 -71 149 -105 220 -34 72 -81
171 -105 220 -52 110 -125 262 -219 460 -40 83 -94 196 -121 252 -27 56 -51
100 -53 98 -5 -4 -10 -248 -15 -642 l-3 -231 34 -74 c19 -40 80 -176 137 -303
218 -489 314 -702 338 -755 23 -51 92 -203 139 -309 11 -25 31 -68 43 -96 13
-27 98 -219 190 -425 92 -206 175 -393 185 -415 10 -22 46 -103 80 -180 34
-77 77 -172 95 -211 18 -40 82 -181 141 -315 59 -134 112 -249 118 -256 7 -7
87 -13 235 -18 124 -3 228 -8 233 -11 4 -3 25 32 46 78 174 372 252 538 294
628 28 58 66 139 85 180 19 41 53 113 75 160 91 191 132 278 158 335 15 33 46
98 67 145 45 94 226 483 280 599 99 213 171 368 219 470 30 62 54 114 54 116
0 2 26 59 59 126 32 68 70 149 84 179 40 88 156 334 242 515 26 55 64 136 85
180 165 352 370 768 377 762 3 -3 7 -39 9 -79 7 -156 14 -1579 14 -2950 l0
-1438 238 0 238 0 0 2745 0 2746 -171 -6 c-225 -8 -276 -12 -285 -22 -4 -4
-49 -89 -100 -188 -51 -99 -128 -247 -170 -330 -43 -82 -124 -240 -180 -350
-56 -110 -140 -272 -185 -360 -144 -280 -250 -485 -350 -680 -54 -104 -132
-257 -175 -340 -43 -82 -124 -240 -180 -350 -56 -110 -141 -274 -188 -365 -46
-91 -122 -237 -167 -325 -45 -88 -131 -254 -190 -370 -59 -115 -131 -255 -160
-310 -29 -55 -96 -185 -150 -290 -240 -468 -233 -456 -254 -431 -16 19 -21 48
-11 61 20 27 29 211 34 705 l4 325 -43 90 c-24 50 -84 176 -135 280 -51 105
-116 240 -145 300 -29 61 -96 200 -150 310 -54 110 -119 245 -145 300 -26 55
-91 190 -145 300 -133 273 -238 491 -295 610 -26 55 -89 186 -140 290 -51 105
-114 235 -140 290 -26 55 -95 197 -152 315 -57 118 -140 288 -183 378 l-78
162 -249 0 -250 0 5 -2517z m2117 -1967 c0 -12 -5 -7 -19 24 -11 24 -11 24 3
6 9 -11 16 -24 16 -30z"/>
<path d="M5730 6263 c-47 -20 -193 -91 -325 -157 l-239 -121 -42 -85 c-24 -47
-125 -251 -225 -455 -509 -1037 -706 -1436 -949 -1930 -431 -875 -412 -833
-416 -899 -18 -271 -29 -822 -16 -829 9 -6 48 66 245 443 33 63 79 151 102
195 23 44 86 166 140 270 98 190 189 367 315 610 37 72 105 202 150 290 46 88
108 210 140 270 32 61 104 200 160 310 118 230 254 495 380 740 48 94 124 240
167 325 78 151 272 530 447 874 47 93 86 173 86 177 0 17 -36 8 -120 -28z"/>
<path d="M928 6064 l-228 -225 0 -2500 0 -2499 238 2 237 3 0 2495 c0 2632 -1
2950 -13 2950 -4 0 -109 -102 -234 -226z"/>
<path d="M5788 5090 c-9 -19 -40 -84 -68 -145 -29 -60 -69 -146 -90 -190 -98
-206 -144 -304 -167 -355 -13 -30 -38 -82 -55 -115 l-31 -60 -2 -1460 -1
-1460 155 -155 c178 -176 268 -256 279 -246 8 9 10 3540 2 3956 -5 257 -6 264
-22 230z"/>
</g>
</svg>
